# AST/ASF file generated using VICON BodyLanguage
# -----------------------------------------------
:version 1.10
:name VICON
:units
  mass 1.0
  length 0.45
  angle deg
:documentation
   .ast/.asf automatically generated from VICON data using
   VICON BodyBuilder and BodyLanguage model FoxedUp or BRILLIANT.MOD
:root
   order TX TY TZ RX RY RZ
   axis XYZ
   position 0 0 0  
   orientation 0 0 0 
:bonedata
  begin
     id 1 
     name lhipjoint
     direction 0.588788 -0.725889 0.355548 
     length 2.37778 
     axis 0 0 0  XYZ
  end
  begin
     id 2 
     name lfemur
     direction 0.34202 -0.939693 0  
     length 6.86393  
     axis 0 0 20  XYZ
    dof rx ry rz
    limits (-160.0 20.0)
           (-70.0 70.0)
           (-60.0 70.0)
  end
  begin
     id 3 
     name ltibia
     direction 0.34202 -0.939693 0   
     length 7.32851   
     axis 0 0 20   XYZ
    dof rx
    limits (-10.0 170.0)
  end
  begin
     id 4 
     name lfoot
     direction 0.0626533 -0.172138 0.983078   
     length 1.98929   
     axis -90 7.62852e-016 20   XYZ
    dof rx rz
    limits (-45.0 90.0)
           (-70.0 20.0)
  end
  begin
     id 5 
     name ltoes
     direction 1.53647e-011 -4.21734e-011 1   
     length 1.00479   
     axis -90 7.62852e-016 20   XYZ
    dof rx
    limits (-90.0 20.0)
  end
  begin
     id 6 
     name rhipjoint
     direction -0.59141 -0.724168 0.354705   
     length 2.38343  
     axis 0 0 0  XYZ 
  end
  begin
     id 7 
     name rfemur
     direction -0.34202 -0.939693 0   
     length 6.95589   
     axis 0 0 -20   XYZ
    dof rx ry rz
    limits (-160.0 20.0)
           (-70.0 70.0)
           (-70.0 60.0)
  end
  begin
     id 8 
     name rtibia
     direction -0.34202 -0.939693 0   
     length 7.32327   
     axis 0 0 -20   XYZ
    dof rx
    limits (-10.0 170.0)
 end
 begin
     id 9 
     name rfoot
     direction -0.0660461 -0.18146 0.981178   
     length 1.85272  
     axis -90 -7.62852e-016 -20   XYZ
    dof rx rz
    limits (-45.0 90.0)
           (-20.0 70.0)
  end
  begin
     id 10 
     name rtoes
     direction -1.53586e-011 -4.21988e-011 1   
     length 0.93746   
     axis -90 -7.62852e-016 -20   XYZ
    dof rx
    limits (-90.0 20.0)
  end
  begin
     id 11 
     name lowerback
     direction -0.0107982 0.991059 0.13299   
     length 1.98691   
     axis 0 0 0   XYZ
    dof rx ry rz
    limits (-20.0 45.0)
           (-30.0 30.0)
           (-30.0 30.0)
  end
  begin
     id 12 
     name upperback
     direction 0.0076296 0.999916 0.0104576   
     length 1.99501   
     axis 0 0 0   XYZ
    dof rx ry rz
    limits (-20.0 45.0)
           (-30.0 30.0)
           (-30.0 30.0)
  end
  begin
     id 13 
     name thorax
     direction 0.01176 0.998615 -0.0512909   
     length 2.03144   
     axis 0 0 0   XYZ
    dof rx ry rz
    limits (-20.0 45.0)
           (-30.0 30.0)
           (-30.0 30.0)
  end
  begin
     id 14 
     name lowerneck
     direction -0.0171909 0.999644 0.0204011   
     length 1.71818   
     axis 0 0 0   XYZ
    dof rx ry rz
    limits (-20.0 45.0)
           (-30.0 30.0)
           (-30.0 30.0)
  end
  begin
     id 15 
     name upperneck
     direction 0.0250902 0.997482 -0.0663316   
     length 1.66199   
     axis 0 0 0   XYZ
    dof rx ry rz
    limits (-20.0 45.0)
           (-30.0 30.0)
           (-30.0 30.0)
  end
  begin
     id 16
     name head
     direction 0.00881535 0.99956 -0.0283365  
     length 1.81545  
     axis 0 0 0   XYZ
    dof rx ry rz
    limits (-20.0 45.0)
           (-30.0 30.0)
           (-30.0 30.0)
  end
  begin
     id 17 
     name lclavicle
     direction 0.840411 0.486876 -0.238035  
     length 3.30409  
     axis 0 0 0   XYZ
    dof ry rz
    limits (-20.0 10.0)
           (0.0 20.0)
  end
  begin
     id 18 
     name lhumerus
     direction 1 -4.48977e-011 -5.16239e-027   
     length 4.62672   
     axis 180 -30 -90   XYZ
    dof rx ry rz
    limits (-60.0 90.0)
           (-90.0 90.0)
           (-90.0 90.0)
  end
  begin
     id 19
     name lradius
     direction 1 -4.48977e-011 -8.71171e-027   
     length 3.11018   
     axis 180 -30 -90   XYZ
    dof rx
    limits (-10.0 170.0)
  end
  begin
     id 20
     name lwrist
     direction 1 -4.48912e-011 -1.03764e-026   
     length 1.55509   
     axis 9.09556e-015 90 90   XYZ
    dof ry
    limits (-180.0 0.0)
 end
  begin
     id 21 
     name lhand
     direction 1 -4.49072e-011 -2.07528e-026   
     length 0.743834   
     axis 1.3242e-014 90 90   XYZ
    dof rx rz
    limits (-90.0 90.0)
           (-45.0 45.0)
  end
  begin
     id 22 
     name lfingers
     direction 1 -4.48909e-011 -4.15056e-026   
     length 0.599698   
     axis 2.64841e-014 90 90   XYZ
    dof rx
    limits (0.0 90.0)
  end
  begin
     id 23
     name lthumb
     direction 0.707107 -6.35013e-011 0.707107   
     length 0.86105   
     axis -90 45 2.85299e-015   XYZ
    dof rx rz
    limits (-45.0 45.0)
           (-45.0 45.0)
  end
  begin
     id 24 
     name rclavicle
     direction -0.835208 0.500237 -0.228452   
     length 3.2716  
     axis 0 0 0   XYZ 
    dof ry rz
    limits (-10.0 20.0)
           (-20.0 0.0)
  end
  begin
     id 25 
     name rhumerus
     direction -1 -4.48978e-011 -5.1953e-028  
     length 4.55919   
     axis 180 30 90   XYZ
    dof rx ry rz
    limits (-90.0 60.0)
           (-90.0 90.0)
           (-90.0 90.0)
  end
  begin
     id 26 
     name rradius
     direction -1 -4.48961e-011 -5.99546e-027   
     length 3.22748   
     axis 180 30 90   XYZ
    dof rx
    limits (-10.0 170.0)
  end
  begin
     id 27 
     name rwrist
     direction -1 -4.48986e-011 -1.03764e-026   
     length 1.61374   
     axis 9.09556e-015 -90 -90   XYZ
    dof ry
    limits (-180.0 0.0)
  end
  begin
     id 28
     name rhand
     direction -1 -4.4899e-011 -2.07528e-026   
     length 0.700882   
     axis 1.3242e-014 -90 -90   XYZ
    dof rx rz
    limits (-90.0 90.0)
           (-45.0 45.0)
  end
  begin
     id 29
     name rfingers
     direction -1 -4.48991e-011 -4.15056e-026   
     length 0.565069   
     axis 2.64841e-014 -90 -90   XYZ
    dof rx
    limits (0.0 90.0)
  end
  begin
     id 30
     name rthumb
     direction -0.707107 -6.34804e-011 0.707107   
     length 0.811329   
     axis -90 -45 -2.85299e-015   XYZ
    dof rx rz
    limits (-45.0 45.0)
           (-45.0 45.0)
  end
:hierarchy
  begin
    root lhipjoint rhipjoint lowerback
    lhipjoint lfemur
    lfemur ltibia
    ltibia lfoot
    lfoot ltoes
    rhipjoint rfemur
    rfemur rtibia
    rtibia rfoot
    rfoot rtoes
    lowerback upperback
    upperback thorax
    thorax lowerneck lclavicle rclavicle
    lowerneck upperneck
    upperneck head
    lclavicle lhumerus
    lhumerus lradius
    lradius lwrist
    lwrist lhand lthumb
    lhand lfingers
    rclavicle rhumerus
    rhumerus rradius
    rradius rwrist
    rwrist rhand rthumb
    rhand rfingers
  end

#!OML:ASF F:\VICON\USERDATA\INSTALL\SteveWalk\SteveWalk.ASF
:FULLY-SPECIFIED
:DEGREES
64
root -0.0339852 16.3706 -30.9509 16.5259 1.97245 2.72177
lowerback -13.5167 -1.15282 -5.75585
upperback -4.90126 -0.747348 -0.880254
thorax 2.46398 -0.338943 2.20996
lowerneck -4.02098 -1.07079 -0.46261
upperneck 8.26271 -1.48208 0.933121
head 3.37534 -0.712719 0.323276
rclavicle -4.82674e-015 7.95139e-016
rhumerus -53.8677 -25.2275 -65.278
rradius 17.1031
rwrist 12.9074
rhand -9.96903 -35.1451
rfingers 7.12502
rthumb 16.0135 -64.5033
lclavicle -4.82674e-015 7.95139e-016
lhumerus -30.0929 11.8132 78.9302
lradius 21.5091
lwrist -11.8628
lhand -19.8401 -14.9636
lfingers 7.12502
lthumb 6.49419 14.9168
rfemur -46.2386 -5.22835 19.3312
rtibia 69.9499
rfoot -11.2744 1.53505
rtoes -9.87347
lfemur -28.5709 2.99355 -27.3384
ltibia 34.575
lfoot -23.1533 -4.90721
ltoes -5.92616
65
root -0.0179294 16.3447 -30.7432 16.5057 1.8212 2.74751
lowerback -13.8237 -1.17494 -5.63261
upperback -4.77691 -0.766815 -0.861294
thorax 2.7616 -0.359065 2.15354
lowerneck -3.82892 -1.01123 -0.537577
upperneck 8.01794 -1.40672 1.07182
head 3.25542 -0.673564 0.385635
rclavicle -7.66253e-015 6.55989e-015
rhumerus -54.8468 -26.035 -63.7971
rradius 16.5477
rwrist 14.4954
rhand -10.1594 -35.8424
rfingers 7.12502
rthumb 15.8301 -65.2153
lclavicle -7.66253e-015 6.55989e-015
lhumerus -29.1439 9.6838 79.8797
lradius 22.6669
lwrist -9.77593
lhand -18.9856 -14.3368
lfingers 7.12502
lthumb 7.31904 15.5166
rfemur -47.1419 -4.95869 19.462
rtibia 68.0081
rfoot -12.0139 0.827446
rtoes -11.8769
lfemur -27.6965 3.42718 -27.4261
ltibia 34.6139
lfoot -23.9361 -4.8532
ltoes -5.76549
66
root -0.0205411 16.3281 -30.5688 16.9721 2.74565 2.69852
lowerback -13.8237 -1.51262 -5.57312
upperback -5.07256 -1.23572 -0.710019
thorax 2.48887 -0.578716 2.20554
lowerneck -3.30469 -1.01649 -0.466567
upperneck 7.90574 -1.41132 0.980822
head 3.11526 -0.678994 0.345796
rclavicle 1.01256e-014 -1.78906e-015
rhumerus -56.1825 -26.5177 -62.3615
rradius 16.2299
rwrist 15.5588
rhand -10.1344 -36.0009
rfingers 7.12502
rthumb 15.8542 -65.3718
lclavicle 1.01256e-014 -1.78906e-015
lhumerus -28.6517 7.53236 80.616
lradius 23.885
lwrist -8.11858
lhand -19.0883 -14.7892
lfingers 7.12502
lthumb 7.21995 15.0676
rfemur -48.4296 -5.44072 20.023
rtibia 65.8029
rfoot -12.397 0.115559
rtoes -12.9494
lfemur -27.4767 3.6522 -27.2618
ltibia 34.5138
lfoot -24.5493 -5.37188
ltoes -6.66776
67
root -0.00267716 16.3254 -30.3474 16.9135 2.61095 2.52587
lowerback -14.1717 -1.4869 -5.28887
upperback -4.9717 -1.21658 -0.607288
thorax 2.77913 -0.578985 2.14978
lowerneck -3.16265 -0.957352 -0.349461
upperneck 7.8431 -1.31388 0.661494
head 3.06196 -0.639109 0.226519
rclavicle -4.48663e-015 -2.18663e-015
rhumerus -57.2404 -26.8296 -61.0785
rradius 15.9943
rwrist 16.5513
rhand -9.82946 -35.9937
rfingers 7.12502
rthumb 16.1479 -65.3411
lclavicle -4.48663e-015 -2.18663e-015
lhumerus -27.981 6.11257 81.1007
lradius 24.9429
lwrist -7.05067
lhand -19.1779 -14.96
lfingers 7.12502
lthumb 7.13343 14.8997
rfemur -48.9114 -5.1531 20.3084
rtibia 63.2587
rfoot -12.957 -0.35999
rtoes -13.5991
lfemur -26.3264 4.15305 -27.1227
ltibia 34.1647
lfoot -25.1928 -5.37607
ltoes -6.67384
68
root 0.00547898 16.3199 -30.1329 16.9457 2.67964 2.64401
lowerback -14.5744 -1.65974 -5.40066
upperback -4.7558 -1.39822 -0.524943
thorax 3.2411 -0.682765 2.25885
lowerneck -3.41752 -0.845597 -0.455094
upperneck 7.91358 -1.15494 0.632199
head 3.1341 -0.563791 0.240107
rclavicle -2.00974e-014 -1.09332e-014
rhumerus -57.8394 -27.152 -60.0407
rradius 15.6397
rwrist 17.4633
rhand -9.73666 -36.0116
rfingers 7.12502
rthumb 16.2372 -65.3517
lclavicle -2.00974e-014 -1.09332e-014
lhumerus -26.9276 4.78169 81.4942
lradius 25.7193
lwrist -5.79165
lhand -18.9459 -15.225
lfingers 7.12502
lthumb 7.35732 14.6271
rfemur -49.4143 -5.0037 20.3247
rtibia 60.5576
rfoot -13.3564 -0.93377
rtoes -12.0023
lfemur -25.221 4.68663 -27.2212
ltibia 33.6599
lfoot -25.7959 -6.04737
ltoes -5.86996
69
root 0.0172425 16.3213 -29.9177 16.8828 2.8621 2.71757
lowerback -14.6651 -1.78631 -5.36118
upperback -4.64604 -1.56287 -0.482172
thorax 3.41916 -0.770314 2.24932
lowerneck -3.45806 -0.789815 -0.553321
upperneck 7.88613 -1.07908 0.701735
head 3.13321 -0.526504 0.282432
rclavicle 3.75827e-016 5.96354e-016
rhumerus -58.5989 -27.3468 -59.1644
rradius 15.3781
rwrist 17.8398
rhand -10.3841 -35.8274
rfingers 7.12502
rthumb 15.6137 -65.2173
lclavicle 3.75827e-016 5.96354e-016
lhumerus -26.1324 3.20104 81.8843
lradius 26.6948
lwrist -4.29983
lhand -18.4689 -15.7788
lfingers 7.12502
lthumb 7.81781 14.0567
rfemur -49.6562 -5.01783 20.3882
rtibia 57.6563
rfoot -12.7106 -1.09023
rtoes -5.56385
lfemur -23.9309 5.08978 -27.2323
ltibia 32.9864
lfoot -26.4047 -6.48595
ltoes -5.96189
70
root 0.0259729 16.3121 -29.7043 16.7599 2.96168 2.74548
lowerback -14.4872 -1.82132 -5.26899
upperback -4.6755 -1.63486 -0.485478
thorax 3.29597 -0.802917 2.18534
lowerneck -3.45037 -0.789055 -0.419069
upperneck 7.98418 -1.0756 0.554371
head 3.16319 -0.526092 0.211461
rclavicle -6.56921e-016 2.38542e-015
rhumerus -59.5514 -27.317 -58.4663
rradius 15.2642
rwrist 18.1376
rhand -10.8104 -35.7899
rfingers 7.12502
rthumb 15.2031 -65.2113
lclavicle -6.56921e-016 2.38542e-015
lhumerus -25.7829 1.40214 82.1837
lradius 28.0088
lwrist -2.99816
lhand -18.353 -16.0738
lfingers 7.12502
lthumb 7.92968 13.7575
rfemur -49.7618 -4.98033 20.5541
rtibia 54.6381
rfoot -12.3949 -1.56789
rtoes -4.40151
lfemur -22.579 5.67958 -27.2074
ltibia 32.2836
lfoot -27.0473 -6.8921
ltoes -6.36254
71
root 0.0323748 16.3034 -29.4969 16.7813 3.22919 2.88872
lowerback -14.3354 -1.97122 -5.28279
upperback -4.77934 -1.84342 -0.497879
thorax 3.1206 -0.900617 2.14878
lowerneck -3.16796 -0.726333 -0.255453
upperneck 7.76172 -0.992403 0.439461
head 3.03106 -0.484828 0.150299
rclavicle -1.19442e-014 -1.70955e-014
rhumerus -60.5517 -27.4122 -57.497
rradius 15.0567
rwrist 18.8266
rhand -10.7974 -35.5549
rfingers 7.12502
rthumb 15.2157 -64.9754
lclavicle -1.19442e-014 -1.70955e-014
lhumerus -25.4469 -0.081628 82.2669
lradius 29.1135
lwrist -2.10049
lhand -18.5077 -16.2773
lfingers 7.12502
lthumb 7.78037 13.5595
rfemur -49.9146 -5.15373 20.6624
rtibia 51.5067
rfoot -13.0389 -1.99845
rtoes -9.59753
lfemur -21.3861 6.40169 -27.2788
ltibia 31.5747
lfoot -27.6422 -7.70651
ltoes -6.84778
72
root 0.0434131 16.2981 -29.2916 16.9178 3.64679 2.89843
lowerback -14.5976 -2.12316 -5.06943
upperback -4.64732 -2.05199 -0.50244
thorax 3.41071 -1.0125 1.97813
lowerneck -3.18371 -0.737243 -0.263876
upperneck 7.46093 -1.01319 0.545508
head 2.9325 -0.492095 0.185492
rclavicle -1.40842e-014 5.36719e-015
rhumerus -61.1077 -27.4736 -57.0721
rradius 14.9748
rwrist 18.8544
rhand -10.806 -35.181
rfingers 7.12502
rthumb 15.2074 -64.6021
lclavicle -1.40842e-014 5.36719e-015
lhumerus -24.7286 -1.79405 82.3722
lradius 30.3089
lwrist -0.830624
lhand -18.7158 -16.2729
lfingers 7.12502
lthumb 7.57951 13.5713
rfemur -50.0949 -5.40177 20.8945
rtibia 48.2072
rfoot -13.3602 -2.36238
rtoes -11.8464
lfemur -20.3705 7.15441 -27.1727
ltibia 30.9016
lfoot -27.9229 -9.15322
ltoes -5.04316
73
root 0.0510303 16.2875 -29.0871 17.1392 3.99798 2.99402
lowerback -14.9358 -2.26033 -5.02618
upperback -4.59924 -2.21449 -0.522558
thorax 3.65287 -1.09816 1.89244
lowerneck -3.21576 -0.770359 -0.313596
upperneck 7.49838 -1.06522 0.68426
head 2.95292 -0.514436 0.236772
rclavicle -2.61184e-014 -1.33186e-014
rhumerus -61.3923 -26.7892 -57.7575
rradius 15.247
rwrist 17.4172
rhand -11.1916 -35.1731
rfingers 7.12502
rthumb 14.8359 -64.622
lclavicle -2.61184e-014 -1.33186e-014
lhumerus -24.1945 -3.3351 82.3913
lradius 31.5683
lwrist 0.373985
lhand -18.9053 -16.1876
lfingers 7.12502
lthumb 7.39652 13.6631
rfemur -50.3233 -5.60009 21.0355
rtibia 44.8201
rfoot -13.0867 -2.70883
rtoes -11.5436
lfemur -19.4141 7.91564 -27.155
ltibia 30.1455
lfoot -27.9991 -10.6487
ltoes -3.29204
